<svg width="14" height="30" viewBox="0 0 14 30" fill="none" xmlns="http://www.w3.org/2000/svg">
<path d="M7.17047 0H6.08506C2.93109 0 0.258569 2.4429 0 5.56502C0 5.56502 -2.3542e-07 8.54436 0.00578862 9.56512L2.93399 7.32677C2.93399 6.49028 2.94749 5.73965 2.96679 5.63352C3.0736 4.88899 3.45153 4.2101 4.02808 3.72706C4.99289 2.87996 6.95242 2.71208 8.31956 3.20992L10.8724 1.25425C9.81151 0.440993 8.51207 0.000159912 7.17529 0" fill="black"/>
<path d="M11.1238 27.6978L9.38137 26.3664C8.8287 26.7812 8.15329 26.9996 7.46236 26.9867H6.37309C5.61861 27.0014 4.88461 26.7408 4.3084 26.2535C3.73503 25.7932 3.35835 25.1319 3.25483 24.4039C3.22202 24.2303 3.21238 22.8303 3.22202 21.6475L1.75551 20.5264L0.336278 19.4448C0.296874 19.6947 0.276553 19.9473 0.275495 20.2003V22.6345C0.275495 24.1917 0.0487644 25.7595 1.21908 27.3842C2.27555 28.9386 4.12701 29.9998 6.29591 29.9998H7.38132C8.19762 30.0067 9.00713 29.8511 9.76275 29.5422C10.5184 29.2333 11.205 28.7772 11.7828 28.2005L11.1238 27.6978Z" fill="black"/>
<path d="M13.5635 22.1105C13.5635 23.5094 13.5828 24.6373 13.2529 25.7362L11.9793 24.7637L10.6093 23.713C10.6286 22.5012 10.6093 20.1432 10.5804 19.9676C10.4704 19.2458 10.0934 18.5915 9.52389 18.1345C8.91606 17.6241 7.91459 17.3684 6.9189 17.3723C5.92322 17.3761 4.92175 17.6241 4.31392 18.1345C4.15729 18.2648 4.01352 18.4099 3.88458 18.5677L3.67425 18.4056L1.57965 16.803C2.16059 16.0971 2.89165 15.5295 3.7196 15.1416C3.78814 15.1082 3.85834 15.0783 3.92992 15.0519C3.74565 14.9805 3.57101 14.9033 3.39638 14.8194C2.34713 14.3067 1.46759 13.5029 0.862793 12.5039L3.23526 10.6871C3.48853 11.2277 3.8918 11.6842 4.39707 12.0022C4.90234 12.3201 5.48834 12.4862 6.08531 12.4807H7.17072C7.53199 12.4822 7.89088 12.4221 8.23201 12.3032L6.84172 10.9138L8.94211 8.81249L10.235 10.1053C10.261 10.0089 10.2803 9.90176 10.2967 9.79853C10.3517 9.48207 10.3382 5.87851 10.2967 5.63634C10.2813 5.535 10.2607 5.43452 10.235 5.33532L12.6788 3.46069C13 4.12036 13.1963 4.83381 13.2577 5.56494L13.2702 9.78213C13.2124 9.96255 13.2538 11.0364 12.4781 12.3505L13.9553 13.8314L11.852 15.9318L10.427 14.5C10.2315 14.6245 10.0285 14.7367 9.81912 14.8358C9.74772 14.8715 9.67633 14.9043 9.60204 14.9323C9.78632 14.9998 9.9677 15.0741 10.1423 15.158C11.9909 16.0264 13.3773 17.7794 13.5481 19.9898C13.6031 20.6941 13.5616 21.4052 13.5616 22.1124" fill="black"/>
</svg>
