<svg width="47" height="65" viewBox="0 0 47 65" fill="none" xmlns="http://www.w3.org/2000/svg">
<path d="M23.7365 0H22.3281C18.2355 0 14.7676 3.1699 14.4321 7.22116C14.4321 7.22116 14.4321 11.0871 14.4396 12.4117L18.2393 9.5072C18.2393 8.42177 18.2568 7.44776 18.2818 7.31005C18.4204 6.34394 18.9108 5.46302 19.659 4.83623C20.9109 3.73703 23.4536 3.51919 25.2276 4.16519L28.5402 1.62752C27.1635 0.572232 25.4774 0.000207501 23.7428 0" fill="black"/>
<path d="M28.8658 35.9405L26.6048 34.2128C25.8877 34.7511 25.0113 35.0345 24.1147 35.0178H22.7013C21.7223 35.0369 20.7698 34.6987 20.0221 34.0664C19.2782 33.4691 18.7894 32.611 18.655 31.6664C18.6125 31.441 18.6 29.6245 18.6125 28.0896L16.7095 26.6349L14.8679 25.2314C14.8168 25.5557 14.7904 25.8834 14.7891 26.2117V29.3703C14.7891 31.391 14.4949 33.4254 16.0135 35.5336C17.3843 37.5505 19.7868 38.9276 22.6011 38.9276H24.0096C25.0688 38.9365 26.1192 38.7346 27.0997 38.3338C28.0802 37.9329 28.9712 37.3411 29.7209 36.5928L28.8658 35.9405Z" fill="black"/>
<path d="M32.0317 28.6906C32.0317 30.5059 32.0568 31.9695 31.6286 33.3954L29.9761 32.1335L28.1983 30.7701C28.2234 29.1977 28.1983 26.1379 28.1608 25.9101C28.0181 24.9734 27.5288 24.1244 26.7899 23.5314C26.0012 22.8691 24.7017 22.5374 23.4097 22.5424C22.1177 22.5474 20.8182 22.8691 20.0294 23.5314C19.8262 23.7005 19.6396 23.8888 19.4723 24.0935L19.1994 23.8832L16.4815 21.8037C17.2353 20.8876 18.1839 20.1512 19.2583 19.6479C19.3472 19.6045 19.4383 19.5656 19.5312 19.5315C19.2921 19.4388 19.0655 19.3387 18.8389 19.2298C17.4773 18.5645 16.3361 17.5214 15.5513 16.2251L18.6298 13.8677C18.9584 14.5692 19.4817 15.1615 20.1373 15.5741C20.793 15.9867 21.5534 16.2023 22.328 16.1951H23.7364C24.2052 16.197 24.6709 16.1191 25.1136 15.9647L23.3095 14.1619L26.035 11.4352L27.7126 13.1128C27.7464 12.9876 27.7714 12.8486 27.7927 12.7147C27.8641 12.3041 27.8465 7.62807 27.7927 7.31384C27.7728 7.18234 27.746 7.05196 27.7126 6.92323L30.8837 4.49072C31.3005 5.34671 31.5552 6.27247 31.6349 7.22119L31.6512 12.6934C31.576 12.9275 31.6299 14.3209 30.6233 16.0261L32.54 17.9478L29.8108 20.6732L27.9617 18.8154C27.7081 18.9769 27.4447 19.1224 27.173 19.251C27.0803 19.2974 26.9877 19.3399 26.8913 19.3762C27.1304 19.4639 27.3658 19.5603 27.5924 19.6692C29.9911 20.7959 31.7901 23.0707 32.0117 25.9389C32.0831 26.8528 32.0292 27.7755 32.0292 28.6931" fill="black"/>
<path d="M28.0319 47.9779C27.9067 46.3366 26.8751 45.0359 25.5018 44.3899C25.2658 44.2769 25.0203 44.1852 24.7681 44.1157C24.3608 44 23.9396 43.941 23.5162 43.9404H22.7099C22.2058 43.9414 21.7052 44.0242 21.2276 44.1858C21.0568 44.241 20.8896 44.3066 20.7269 44.3824C20.1112 44.6703 19.5676 45.092 19.1357 45.6168L20.6906 46.8074L20.8471 46.9326C20.9432 46.8155 21.05 46.7078 21.1663 46.6108C21.6195 46.2352 22.3619 46.0424 23.103 46.0449C23.8442 46.0474 24.5866 46.2327 25.0373 46.6108C25.4602 46.95 25.7404 47.4357 25.8223 47.9717C25.846 48.1044 25.8586 49.8496 25.8435 50.7535L26.8614 51.5334L27.8066 52.2558C28.057 51.4408 28.0369 50.602 28.0369 49.5629C28.0369 49.0408 28.0682 48.5125 28.0282 47.9892M26.2291 53.7005L24.9359 52.7115C24.525 53.0193 24.0233 53.1815 23.5099 53.1722H22.7012C22.1408 53.1831 21.5956 52.9895 21.1676 52.6276C20.7421 52.2866 20.4624 51.7965 20.3851 51.2567C20.3613 51.1315 20.3538 50.0887 20.3613 49.2098L19.2721 48.3773L18.218 47.571C18.1887 47.7566 18.1736 47.9441 18.1729 48.1319V49.9447C18.1729 51.1015 18.0039 52.2658 18.8728 53.4727C19.2954 54.0794 19.8598 54.5737 20.517 54.9126C21.1742 55.2514 21.9042 55.4245 22.6436 55.4169H23.4498C24.0564 55.4214 24.6578 55.3051 25.2189 55.0749C25.7801 54.8447 26.2899 54.5052 26.7186 54.0761L26.2291 53.7005Z" fill="black"/>
<path d="M5.25761 55.1551H0.375059V53.0081H5.16872C7.04662 53.0081 6.99279 50.1937 5.16872 50.1937C4.62788 50.1937 3.64261 50.1937 3.10303 50.1937C2.70592 50.2042 2.31071 50.1354 1.94049 49.9914C1.57028 49.8474 1.2325 49.631 0.946904 49.3549C0.661306 49.0788 0.433625 48.7485 0.277173 48.3833C0.120721 48.0182 0.0386378 47.6255 0.0357249 47.2283C0.032812 46.8311 0.109128 46.4372 0.260208 46.0698C0.411289 45.7025 0.634102 45.3689 0.91562 45.0886C1.19714 44.8083 1.53171 44.587 1.89977 44.4376C2.26783 44.2881 2.66199 44.2135 3.05921 44.2182H7.94927V46.3678C7.89794 46.3678 3.0517 46.3678 3.00037 46.3678C1.99882 46.4367 1.96502 47.9603 3.00037 48.0316C3.0855 48.0379 4.82694 48.0316 5.16872 48.0316C5.63524 48.0264 6.09792 48.1164 6.52845 48.2961C6.95898 48.4759 7.3483 48.7416 7.67259 49.077C9.90479 51.323 8.29856 55.1051 5.2501 55.1401" fill="black"/>
<path d="M12.2936 55.1403V46.3705H8.86084V44.2222H17.876V46.3705H14.4532V55.1403H12.2936Z" fill="black"/>
<path d="M34.1623 51.3643H31.1977V55.1326H29.0269V44.2157H34.1598C34.6318 44.2084 35.1003 44.298 35.5364 44.4788C35.9724 44.6597 36.3667 44.9281 36.695 45.2674C37.0384 45.6104 37.3083 46.0198 37.4882 46.4706C37.668 46.9214 37.7541 47.4042 37.7411 47.8894C37.7281 48.3746 37.6163 48.8521 37.4125 49.2926C37.2088 49.7332 36.9173 50.1275 36.556 50.4516C36.921 50.9513 37.1147 51.5556 37.1081 52.1743V55.1326H34.9723V52.1743C34.9728 52.0678 34.9522 51.9622 34.9117 51.8637C34.8711 51.7652 34.8115 51.6758 34.7362 51.6004C34.6608 51.5251 34.5714 51.4655 34.4729 51.4249C34.3744 51.3844 34.2688 51.3638 34.1623 51.3643ZM31.1977 49.2047H34.1623C34.3482 49.2094 34.5332 49.1757 34.7055 49.1057C34.8778 49.0357 35.0339 48.9309 35.1638 48.7978C35.4254 48.53 35.5718 48.1706 35.5718 47.7963C35.5718 47.422 35.4254 47.0625 35.1638 46.7947C35.0287 46.6534 34.8644 46.5432 34.6824 46.4716C34.5003 46.4001 34.3049 46.3689 34.1097 46.3803H31.1977V49.2047Z" fill="black"/>
<path d="M46.9083 55.1566H43.2777C42.2611 55.1566 41.2295 54.9338 40.3657 54.3779C39.6445 53.9098 39.0833 53.2329 38.757 52.4374C38.3814 51.5373 38.4202 50.6071 38.4202 49.6581C38.4202 48.6629 38.3163 47.7039 38.931 46.5521C39.3538 45.7689 40.0102 45.137 40.8089 44.7443C41.5787 44.3777 42.4227 44.1939 43.2752 44.2072H46.9058V46.3656H43.2777C41.5012 46.3656 40.5936 47.3871 40.5685 48.6103H46.1321V50.7523H40.5723C40.5998 51.9805 41.4912 52.9971 43.2802 52.9971H46.9108L46.9083 55.1566Z" fill="black"/>
<path d="M0.527794 58.5467H1.15774L2.63897 62.1647H2.69005L4.17127 58.5467H4.80122V62.9053H4.30748V59.5938H4.26492L2.90287 62.9053H2.42615L1.0641 59.5938H1.02154V62.9053H0.527794V58.5467ZM7.11937 62.9734C6.82425 62.9734 6.56532 62.9031 6.34257 62.7627C6.12124 62.6222 5.94814 62.4257 5.82329 62.1732C5.69985 61.9206 5.63814 61.6255 5.63814 61.2878C5.63814 60.9473 5.69985 60.6501 5.82329 60.3961C5.94814 60.1422 6.12124 59.9449 6.34257 59.8045C6.56532 59.664 6.82425 59.5938 7.11937 59.5938C7.41448 59.5938 7.6727 59.664 7.89403 59.8045C8.11678 59.9449 8.28988 60.1422 8.41331 60.3961C8.53817 60.6501 8.60059 60.9473 8.60059 61.2878C8.60059 61.6255 8.53817 61.9206 8.41331 62.1732C8.28988 62.4257 8.11678 62.6222 7.89403 62.7627C7.6727 62.9031 7.41448 62.9734 7.11937 62.9734ZM7.11937 62.5222C7.34354 62.5222 7.52798 62.4647 7.6727 62.3498C7.81741 62.2349 7.92453 62.0838 7.99406 61.8965C8.06358 61.7092 8.09834 61.5063 8.09834 61.2878C8.09834 61.0693 8.06358 60.8657 7.99406 60.677C7.92453 60.4883 7.81741 60.3358 7.6727 60.2195C7.52798 60.1031 7.34354 60.045 7.11937 60.045C6.89519 60.045 6.71075 60.1031 6.56603 60.2195C6.42132 60.3358 6.3142 60.4883 6.24467 60.677C6.17515 60.8657 6.14039 61.0693 6.14039 61.2878C6.14039 61.5063 6.17515 61.7092 6.24467 61.8965C6.3142 62.0838 6.42132 62.2349 6.56603 62.3498C6.71075 62.4647 6.89519 62.5222 7.11937 62.5222ZM9.43538 62.9053V58.5467H9.93764V60.1556H9.9802C10.0171 60.0989 10.0682 60.0265 10.1334 59.9386C10.2001 59.8492 10.2952 59.7697 10.4186 59.7002C10.5435 59.6293 10.7123 59.5938 10.9251 59.5938C11.2004 59.5938 11.443 59.6626 11.653 59.8002C11.8629 59.9379 12.0268 60.1329 12.1446 60.3855C12.2623 60.638 12.3212 60.936 12.3212 61.2793C12.3212 61.6255 12.2623 61.9256 12.1446 62.1796C12.0268 62.4321 11.8637 62.6279 11.6551 62.7669C11.4465 62.9046 11.206 62.9734 10.9336 62.9734C10.7237 62.9734 10.5555 62.9386 10.4292 62.8691C10.303 62.7982 10.2058 62.718 10.1377 62.6286C10.0696 62.5378 10.0171 62.4626 9.9802 62.403H9.92061V62.9053H9.43538ZM9.92912 61.2708C9.92912 61.5177 9.9653 61.7355 10.0377 61.9242C10.11 62.1115 10.2157 62.2583 10.3548 62.3647C10.4938 62.4697 10.6641 62.5222 10.8655 62.5222C11.0755 62.5222 11.2507 62.4669 11.3912 62.3562C11.5331 62.2441 11.6395 62.0937 11.7104 61.905C11.7828 61.7149 11.819 61.5035 11.819 61.2708C11.819 61.041 11.7835 60.8338 11.7126 60.6494C11.643 60.4635 11.5373 60.3167 11.3955 60.2088C11.255 60.0996 11.0784 60.045 10.8655 60.045C10.6612 60.045 10.4895 60.0968 10.3505 60.2003C10.2115 60.3025 10.1065 60.4458 10.0355 60.6302C9.96459 60.8133 9.92912 61.0268 9.92912 61.2708ZM13.0895 62.9053V59.6364H13.5918V62.9053H13.0895ZM13.3449 59.0915C13.247 59.0915 13.1626 59.0582 13.0916 58.9915C13.0221 58.9248 12.9873 58.8447 12.9873 58.751C12.9873 58.6574 13.0221 58.5772 13.0916 58.5105C13.1626 58.4439 13.247 58.4105 13.3449 58.4105C13.4428 58.4105 13.5265 58.4439 13.596 58.5105C13.667 58.5772 13.7024 58.6574 13.7024 58.751C13.7024 58.8447 13.667 58.9248 13.596 58.9915C13.5265 59.0582 13.4428 59.0915 13.3449 59.0915ZM15.0139 58.5467V62.9053H14.5117V58.5467H15.0139ZM17.3044 62.9734C16.9894 62.9734 16.7177 62.9039 16.4893 62.7648C16.2623 62.6244 16.0871 62.4286 15.9636 62.1774C15.8416 61.9249 15.7806 61.6312 15.7806 61.2964C15.7806 60.9615 15.8416 60.6664 15.9636 60.411C16.0871 60.1542 16.2587 59.9542 16.4787 59.8109C16.7 59.6662 16.9582 59.5938 17.2533 59.5938C17.4236 59.5938 17.5917 59.6222 17.7577 59.6789C17.9237 59.7357 18.0748 59.8279 18.211 59.9556C18.3472 60.0819 18.4558 60.2493 18.5366 60.4578C18.6175 60.6664 18.6579 60.9232 18.6579 61.2283V61.4411H16.1381V61.0069H18.1472C18.1472 60.8225 18.1103 60.6579 18.0365 60.5132C17.9641 60.3685 17.8606 60.2542 17.7258 60.1705C17.5924 60.0868 17.4349 60.045 17.2533 60.045C17.0533 60.045 16.8802 60.0946 16.734 60.1939C16.5893 60.2918 16.478 60.4195 16.3999 60.577C16.3219 60.7345 16.2829 60.9033 16.2829 61.0835V61.373C16.2829 61.6198 16.3254 61.8291 16.4106 62.0008C16.4971 62.171 16.617 62.3009 16.7702 62.3902C16.9235 62.4782 17.1015 62.5222 17.3044 62.5222C17.4364 62.5222 17.5555 62.5038 17.6619 62.4669C17.7698 62.4286 17.8627 62.3718 17.9407 62.2966C18.0188 62.22 18.0791 62.1249 18.1216 62.0114L18.6069 62.1476C18.5558 62.3122 18.4699 62.4569 18.3494 62.5818C18.2288 62.7052 18.0798 62.8017 17.9024 62.8712C17.7251 62.9393 17.5257 62.9734 17.3044 62.9734ZM22.3419 62.9649C22.0553 62.9649 21.8084 62.9124 21.6012 62.8074C21.3941 62.7024 21.2345 62.5584 21.1224 62.3754C21.0103 62.1923 20.9543 61.9831 20.9543 61.7475C20.9543 61.5659 20.9926 61.4049 21.0692 61.2644C21.1472 61.1226 21.2543 60.9913 21.3906 60.8707C21.5282 60.7487 21.6864 60.6267 21.8651 60.5047L22.4951 60.0365C22.6185 59.9556 22.7171 59.869 22.7909 59.7768C22.8661 59.6846 22.9037 59.564 22.9037 59.415C22.9037 59.3044 22.8548 59.1972 22.7569 59.0937C22.6604 58.9901 22.5334 58.9383 22.3759 58.9383C22.2652 58.9383 22.1673 58.9667 22.0822 59.0234C21.9985 59.0788 21.9325 59.1497 21.8843 59.2363C21.8375 59.3214 21.8141 59.4093 21.8141 59.5002C21.8141 59.6023 21.8417 59.7059 21.8971 59.8109C21.9538 59.9144 22.0255 60.0209 22.112 60.1301C22.2 60.2379 22.2908 60.3486 22.3844 60.4621L24.3849 62.9053H23.7805L22.129 60.9133C21.9758 60.7288 21.8368 60.5614 21.7119 60.411C21.5871 60.2606 21.4877 60.1124 21.414 59.9662C21.3402 59.8201 21.3033 59.6619 21.3033 59.4916C21.3033 59.2958 21.3466 59.1242 21.4331 58.9766C21.5211 58.8276 21.6438 58.712 21.8013 58.6297C21.9602 58.546 22.1461 58.5042 22.3589 58.5042C22.5774 58.5042 22.7654 58.5467 22.9229 58.6318C23.0803 58.7156 23.2016 58.8269 23.2868 58.966C23.3719 59.1036 23.4145 59.2533 23.4145 59.415C23.4145 59.6236 23.3627 59.8045 23.2591 59.9577C23.1555 60.1109 23.0144 60.2535 22.8356 60.3855L21.9673 61.0325C21.7715 61.1772 21.6388 61.3176 21.5693 61.4538C21.4998 61.59 21.465 61.6879 21.465 61.7475C21.465 61.8837 21.5005 62.0107 21.5714 62.1285C21.6424 62.2462 21.7424 62.3413 21.8715 62.4137C22.0006 62.486 22.1517 62.5222 22.3248 62.5222C22.4894 62.5222 22.6497 62.4874 22.8058 62.4179C22.9619 62.347 23.103 62.2448 23.2293 62.1115C23.357 61.9781 23.4577 61.8178 23.5315 61.6305C23.6067 61.4432 23.6443 61.2325 23.6443 60.9984H24.1295C24.1295 61.2878 24.0962 61.5241 24.0295 61.7071C23.9628 61.8901 23.8876 62.0334 23.8039 62.137C23.7202 62.2406 23.6528 62.3179 23.6018 62.369C23.5847 62.3902 23.5691 62.4115 23.5549 62.4328C23.5407 62.4541 23.5251 62.4754 23.5081 62.4967C23.3676 62.6541 23.1903 62.7719 22.9761 62.8499C22.7618 62.9266 22.5504 62.9649 22.3419 62.9649ZM26.6946 62.9053V58.5467H27.2224V62.4371H29.2484V62.9053H26.6946ZM30.9595 62.9819C30.7523 62.9819 30.5643 62.9429 30.3955 62.8648C30.2267 62.7854 30.0926 62.6712 29.9933 62.5222C29.894 62.3718 29.8443 62.1902 29.8443 61.9774C29.8443 61.7901 29.8812 61.6383 29.955 61.5219C30.0287 61.4042 30.1273 61.312 30.2508 61.2453C30.3742 61.1786 30.5104 61.1289 30.6594 61.0963C30.8098 61.0623 30.9609 61.0353 31.1127 61.0154C31.3113 60.9899 31.4724 60.9707 31.5958 60.958C31.7207 60.9438 31.8115 60.9204 31.8682 60.8877C31.9264 60.8551 31.9555 60.7984 31.9555 60.7175V60.7005C31.9555 60.4905 31.898 60.3273 31.7831 60.211C31.6696 60.0946 31.4972 60.0365 31.2659 60.0365C31.0262 60.0365 30.8382 60.089 30.702 60.1939C30.5658 60.2989 30.47 60.411 30.4147 60.5302L29.9379 60.3599C30.0231 60.1613 30.1366 60.0067 30.2785 59.896C30.4217 59.7839 30.5778 59.7059 30.7467 59.6619C30.9169 59.6165 31.0843 59.5938 31.2489 59.5938C31.3539 59.5938 31.4745 59.6066 31.6107 59.6321C31.7483 59.6562 31.881 59.7066 32.0087 59.7832C32.1378 59.8598 32.2449 59.9754 32.33 60.1301C32.4152 60.2847 32.4577 60.4919 32.4577 60.7515V62.9053H31.9555V62.4626H31.9299C31.8959 62.5335 31.8391 62.6095 31.7597 62.6903C31.6802 62.7712 31.5745 62.84 31.4426 62.8968C31.3106 62.9535 31.1496 62.9819 30.9595 62.9819ZM31.0361 62.5307C31.2347 62.5307 31.4021 62.4917 31.5383 62.4137C31.676 62.3356 31.7795 62.2349 31.8491 62.1115C31.92 61.988 31.9555 61.8582 31.9555 61.722V61.2623C31.9342 61.2878 31.8874 61.3113 31.815 61.3325C31.7441 61.3524 31.6618 61.3701 31.5681 61.3857C31.4759 61.3999 31.3858 61.4127 31.2979 61.424C31.2113 61.434 31.1411 61.4425 31.0872 61.4496C30.9566 61.4666 30.8346 61.4943 30.7211 61.5326C30.609 61.5695 30.5182 61.6255 30.4487 61.7007C30.3806 61.7745 30.3466 61.8752 30.3466 62.0029C30.3466 62.1774 30.4111 62.3094 30.5402 62.3988C30.6707 62.4867 30.836 62.5307 31.0361 62.5307ZM33.4426 62.9053V58.5467H33.9448V60.1556H33.9874C34.0243 60.0989 34.0753 60.0265 34.1406 59.9386C34.2073 59.8492 34.3023 59.7697 34.4258 59.7002C34.5506 59.6293 34.7195 59.5938 34.9323 59.5938C35.2075 59.5938 35.4502 59.6626 35.6601 59.8002C35.8701 59.9379 36.034 60.1329 36.1518 60.3855C36.2695 60.638 36.3284 60.936 36.3284 61.2793C36.3284 61.6255 36.2695 61.9256 36.1518 62.1796C36.034 62.4321 35.8708 62.6279 35.6623 62.7669C35.4537 62.9046 35.2132 62.9734 34.9408 62.9734C34.7308 62.9734 34.5627 62.9386 34.4364 62.8691C34.3101 62.7982 34.213 62.718 34.1449 62.6286C34.0768 62.5378 34.0243 62.4626 33.9874 62.403H33.9278V62.9053H33.4426ZM33.9363 61.2708C33.9363 61.5177 33.9725 61.7355 34.0448 61.9242C34.1172 62.1115 34.2229 62.2583 34.3619 62.3647C34.501 62.4697 34.6712 62.5222 34.8727 62.5222C35.0827 62.5222 35.2579 62.4669 35.3984 62.3562C35.5402 62.2441 35.6467 62.0937 35.7176 61.905C35.79 61.7149 35.8261 61.5035 35.8261 61.2708C35.8261 61.041 35.7907 60.8338 35.7197 60.6494C35.6502 60.4635 35.5445 60.3167 35.4026 60.2088C35.2622 60.0996 35.0855 60.045 34.8727 60.045C34.6684 60.045 34.4967 60.0968 34.3577 60.2003C34.2186 60.3025 34.1136 60.4458 34.0427 60.6302C33.9718 60.8133 33.9363 61.0268 33.9363 61.2708ZM38.5183 59.6364V60.062H36.8243V59.6364H38.5183ZM37.318 58.8532H37.8203V61.9689C37.8203 62.1107 37.8408 62.2172 37.882 62.2881C37.9245 62.3576 37.9785 62.4044 38.0437 62.4286C38.1104 62.4513 38.1806 62.4626 38.2544 62.4626C38.3097 62.4626 38.3551 62.4598 38.3906 62.4541C38.4261 62.447 38.4545 62.4413 38.4757 62.4371L38.5779 62.8882C38.5439 62.901 38.4963 62.9138 38.4353 62.9266C38.3743 62.9407 38.297 62.9478 38.2033 62.9478C38.0615 62.9478 37.9224 62.9173 37.7862 62.8563C37.6514 62.7953 37.5393 62.7024 37.45 62.5775C37.362 62.4527 37.318 62.2952 37.318 62.1051V58.8532ZM40.5667 62.9734C40.2716 62.9734 40.0127 62.9031 39.7899 62.7627C39.5686 62.6222 39.3955 62.4257 39.2706 62.1732C39.1472 61.9206 39.0855 61.6255 39.0855 61.2878C39.0855 60.9473 39.1472 60.6501 39.2706 60.3961C39.3955 60.1422 39.5686 59.9449 39.7899 59.8045C40.0127 59.664 40.2716 59.5938 40.5667 59.5938C40.8618 59.5938 41.12 59.664 41.3414 59.8045C41.5641 59.9449 41.7372 60.1422 41.8607 60.3961C41.9855 60.6501 42.0479 60.9473 42.0479 61.2878C42.0479 61.6255 41.9855 61.9206 41.8607 62.1732C41.7372 62.4257 41.5641 62.6222 41.3414 62.7627C41.12 62.9031 40.8618 62.9734 40.5667 62.9734ZM40.5667 62.5222C40.7909 62.5222 40.9753 62.4647 41.12 62.3498C41.2648 62.2349 41.3719 62.0838 41.4414 61.8965C41.5109 61.7092 41.5457 61.5063 41.5457 61.2878C41.5457 61.0693 41.5109 60.8657 41.4414 60.677C41.3719 60.4883 41.2648 60.3358 41.12 60.2195C40.9753 60.1031 40.7909 60.045 40.5667 60.045C40.3425 60.045 40.1581 60.1031 40.0134 60.2195C39.8687 60.3358 39.7615 60.4883 39.692 60.677C39.6225 60.8657 39.5877 61.0693 39.5877 61.2878C39.5877 61.5063 39.6225 61.7092 39.692 61.8965C39.7615 62.0838 39.8687 62.2349 40.0134 62.3498C40.1581 62.4647 40.3425 62.5222 40.5667 62.5222ZM42.8146 64.1311V59.6364H43.2998V60.1556H43.3594C43.3963 60.0989 43.4474 60.0265 43.5127 59.9386C43.5794 59.8492 43.6744 59.7697 43.7978 59.7002C43.9227 59.6293 44.0915 59.5938 44.3044 59.5938C44.5796 59.5938 44.8222 59.6626 45.0322 59.8002C45.2422 59.9379 45.4061 60.1329 45.5238 60.3855C45.6416 60.638 45.7005 60.936 45.7005 61.2793C45.7005 61.6255 45.6416 61.9256 45.5238 62.1796C45.4061 62.4321 45.2429 62.6279 45.0343 62.7669C44.8258 62.9046 44.5853 62.9734 44.3129 62.9734C44.1029 62.9734 43.9348 62.9386 43.8085 62.8691C43.6822 62.7982 43.585 62.718 43.5169 62.6286C43.4488 62.5378 43.3963 62.4626 43.3594 62.403H43.3169V64.1311H42.8146ZM43.3084 61.2708C43.3084 61.5177 43.3445 61.7355 43.4169 61.9242C43.4893 62.1115 43.595 62.2583 43.734 62.3647C43.873 62.4697 44.0433 62.5222 44.2448 62.5222C44.4548 62.5222 44.63 62.4669 44.7704 62.3562C44.9123 62.2441 45.0187 62.0937 45.0897 61.905C45.162 61.7149 45.1982 61.5035 45.1982 61.2708C45.1982 61.041 45.1627 60.8338 45.0918 60.6494C45.0223 60.4635 44.9166 60.3167 44.7747 60.2088C44.6342 60.0996 44.4576 60.045 44.2448 60.045C44.0405 60.045 43.8688 60.0968 43.7297 60.2003C43.5907 60.3025 43.4857 60.4458 43.4148 60.6302C43.3438 60.8133 43.3084 61.0268 43.3084 61.2708Z" fill="black"/>
</svg>
